<svg width="2121" height="209" viewBox="0 0 2121 209" fill="none" xmlns="http://www.w3.org/2000/svg">
<path opacity="0.5" d="M0.5 73.5V73.5C92.6899 73.5 184.403 60.2743 272.837 34.2269L318.872 20.6676C342.746 13.6359 367.166 8.61571 391.878 5.65981L416.369 2.73025C485.832 -5.57867 556.215 6.39618 619.022 37.2093V37.2093C703.534 78.6706 800.863 85.6196 890.407 56.5856L983.832 26.2934C1055.4 3.08786 1133.31 9.77594 1199.88 44.8398V44.8398C1268.86 81.1793 1349.91 86.9856 1423.38 60.8514L1498.21 34.2289C1579.46 5.32567 1667.2 -0.160804 1751.41 18.3953L1897.24 50.5271C1966.54 65.7972 2037.3 73.5 2108.26 73.5H2121V209H0.5V73.5Z" fill="#87D8FE"/>
</svg>
